<?xml version="1.0" standalone="no"?>
<!DOCTYPE svg PUBLIC "-//W3C//DTD SVG 20010904//EN"
 "http://www.w3.org/TR/2001/REC-SVG-20010904/DTD/svg10.dtd">
<svg version="1.0" xmlns="http://www.w3.org/2000/svg"
 width="1000.000000pt" height="828.000000pt" viewBox="0 0 1000.000000 828.000000"
 preserveAspectRatio="xMidYMid meet">

<g transform="translate(0.000000,828.000000) scale(0.100000,-0.100000)"
fill="#000000" stroke="none">
<path d="M0 7925 l0 -345 1170 0 1170 0 0 345 0 345 -1170 0 -1170 0 0 -345z"/>
<path d="M0 6645 l0 -345 1170 0 1170 0 0 345 0 345 -1170 0 -1170 0 0 -345z"/>
<path d="M0 5381 l0 -340 2203 -4 c2351 -4 2292 -3 2615 -53 299 -46 582 -145
774 -271 86 -57 209 -171 265 -247 l43 -58 0 189 c0 210 -3 226 -74 376 -187
394 -550 621 -1148 720 l-133 21 -2272 3 -2273 3 0 -339z"/>
<path d="M0 4105 l0 -345 2128 0 c2378 0 2796 -7 3217 -51 205 -21 449 -74
526 -114 l29 -16 0 151 c0 140 -2 154 -24 198 -109 215 -369 364 -776 446
-159 32 -414 56 -701 66 -167 5 -1179 10 -2346 10 l-2053 0 0 -345z"/>
<path d="M5858 3324 c-61 -32 -289 -83 -473 -105 -361 -42 -360 -42 -2927 -46
l-2458 -4 0 -345 0 -345 2318 4 c2126 3 2329 4 2462 20 359 43 543 87 737 177
168 78 298 192 362 317 19 38 21 59 21 193 0 82 -3 150 -7 150 -5 -1 -20 -7
-35 -16z"/>
<path d="M5869 2474 c-60 -89 -181 -203 -295 -276 -175 -113 -468 -214 -745
-258 -291 -45 -207 -44 -2586 -47 l-2243 -4 0 -345 0 -345 2253 4 c2473 4
2321 0 2607 63 464 103 780 322 952 660 86 169 89 184 86 398 l-3 190 -26 -40z"/>
<path d="M5890 1221 c0 -90 2 -100 29 -142 101 -157 321 -245 691 -279 73 -6
710 -10 1753 -10 l1637 0 0 210 0 209 -1782 4 c-1225 3 -1822 7 -1908 15 -166
15 -292 39 -362 67 l-58 23 0 -97z"/>
<path d="M5891 684 c-1 -108 2 -127 25 -185 116 -286 392 -445 829 -479 80 -6
736 -10 1693 -10 l1562 0 0 210 0 210 -1522 0 c-922 0 -1586 4 -1683 10 -393
25 -658 110 -814 260 -32 30 -65 66 -74 80 -15 24 -16 19 -16 -96z"/>
</g>
</svg>
